<?xml version="1.0" standalone="no"?>
<!DOCTYPE svg PUBLIC "-//W3C//DTD SVG 20010904//EN"
 "http://www.w3.org/TR/2001/REC-SVG-20010904/DTD/svg10.dtd">
<svg version="1.0" xmlns="http://www.w3.org/2000/svg"
 width="96.000000pt" height="96.000000pt" viewBox="0 0 96.000000 96.000000"
 preserveAspectRatio="xMidYMid meet">

<g transform="translate(0.000000,96.000000) scale(0.100000,-0.100000)"
fill="#000000" stroke="none">
<path d="M109 771 c-27 -27 -29 -35 -29 -100 l0 -71 129 0 129 0 66 54 66 54
-42 37 c-59 50 -74 55 -189 55 -98 0 -101 -1 -130 -29z"/>
<path d="M469 629 c-46 -39 -94 -75 -107 -80 -13 -5 -82 -9 -153 -9 l-129 0 0
-161 0 -161 29 -29 29 -29 342 0 342 0 29 29 29 29 0 212 0 212 -29 29 -29 29
-135 0 -135 0 -83 -71z"/>
</g>
</svg>
